<svg width="192" height="118" viewBox="0 0 192 118" fill="none" xmlns="http://www.w3.org/2000/svg">
<rect x="6.5" y="6.5" width="179" height="104.75" rx="5.5" stroke="black"/>
<g filter="url(#filter0_d_192_1415)">
<path d="M6 12C6 8.68629 8.68629 6 12 6H34.5366V111.366H12C8.68629 111.366 6 108.68 6 105.366V12Z" fill="white"/>
<path d="M34.5366 6H184C185.105 6 186 6.89543 186 8V109.366C186 110.47 185.105 111.366 184 111.366H34.5366V6Z" fill="#F9F9F9"/>
<rect x="45.3752" y="19.1707" width="30.6252" height="6.58536" rx="0.5" fill="#E1E2E4"/>
<rect x="45.3752" y="32.3416" width="30.6252" height="6.58536" rx="0.5" fill="#F4F4F4"/>
<rect x="82.8293" y="19.1707" width="46.0975" height="6.58536" rx="0.5" fill="#E1E2E4"/>
<rect x="82.533" y="32.3416" width="83.1256" height="57.0731" rx="0.5" fill="#F4F4F4"/>
<line x1="33.8652" y1="6" x2="33.8652" y2="110.878" stroke="#E1E2E4"/>
<rect x="6.5" y="6.5" width="179" height="104.75" rx="5.5" stroke="#E1E2E4"/>
</g>
<defs>
<filter id="filter0_d_192_1415" x="0" y="0" width="192" height="117.75" filterUnits="userSpaceOnUse" color-interpolation-filters="sRGB">
<feFlood flood-opacity="0" result="BackgroundImageFix"/>
<feColorMatrix in="SourceAlpha" type="matrix" values="0 0 0 0 0 0 0 0 0 0 0 0 0 0 0 0 0 0 127 0" result="hardAlpha"/>
<feMorphology radius="1" operator="dilate" in="SourceAlpha" result="effect1_dropShadow_192_1415"/>
<feOffset/>
<feGaussianBlur stdDeviation="2.5"/>
<feComposite in2="hardAlpha" operator="out"/>
<feColorMatrix type="matrix" values="0 0 0 0 0.2 0 0 0 0 0.2 0 0 0 0 0.2 0 0 0 0.1 0"/>
<feBlend mode="normal" in2="BackgroundImageFix" result="effect1_dropShadow_192_1415"/>
<feBlend mode="normal" in="SourceGraphic" in2="effect1_dropShadow_192_1415" result="shape"/>
</filter>
</defs>
</svg>
